<svg version="1.2" xmlns="http://www.w3.org/2000/svg" viewBox="0 0 500 500" width="500" height="500">
	<title>5757169_2965739-svg</title>
	<style>
		.s0 { fill: #f1eefd } 
		.s1 { fill: none;stroke: #c3c8ff;stroke-miterlimit:10 } 
		.s2 { fill: #6876eb } 
		.s3 { fill: #1c145e } 
		.s4 { fill: none;stroke: #6876eb;stroke-miterlimit:10;stroke-width: 4 } 
		.s5 { fill: none;stroke: #6876eb;stroke-miterlimit:10 } 
		.s6 { fill: #e9a394 } 
		.s7 { fill: #e37a82 } 
		.s8 { fill: #16005c } 
		.s9 { fill: none;stroke: #16005c;stroke-miterlimit:10;stroke-width: 2 } 
		.s10 { fill: none;stroke: #16005c;stroke-miterlimit:10;stroke-width: .5 } 
		.s11 { fill: #1c145c } 
		.s12 { fill: #ffffff } 
		.s13 { fill: #5321d7 } 
		.s14 { fill: #6a3fdc } 
		.s15 { fill: none;stroke: #5321d7;stroke-miterlimit:10 } 
		.s16 { fill: none;stroke: #c4c6c5;stroke-miterlimit:10 } 
		.s17 { fill: none;stroke: #1c145e;stroke-miterlimit:10 } 
		.s18 { fill: none;stroke: #7079f1;stroke-miterlimit:10;stroke-width: 2 } 
		.s19 { fill: #7079f1 } 
		.s20 { fill: #c3c8ff } 
		.s21 { fill: none;stroke: #7079f1;stroke-miterlimit:10 } 
		.s22 { fill: none;stroke: #1c145e;stroke-miterlimit:10;stroke-width: .5 } 
		.s23 { fill: none;stroke: #ffffff;stroke-miterlimit:10 } 
	</style>
	<g id="BACKGROUND">
		<path id="Layer" class="s0" d="m57.2 392.6c0 0-32.7-76.9 8.6-135.1 41.4-58.2 16.2-109.7 88.8-161.1 93.3-66 183.3-0.9 210.2 43.3 26.8 44.1 118 21.6 91.5 147.2-20.6 97.4-5.3 101.7-5.3 101.7z"/>
		<path id="Layer" fill-rule="evenodd" class="s1" d="m76.9 371.8c0 0-58-30.3-44.1-98.5 14-68.1 71-84.3 94.4-79.3 43.9 9.4-27.8 37-45-10.5-21.5-59.6 55.2-104.7 126.2-93 45.7 7.5 67.7 29.4 108.3 43.1 40.4 13.7 57.4-4.7 41.3-15.3-15.3-10.1-70.9 6.4-51.8 28.9 26.1 30.9 89-16.9 137.8 36.3 48.7 53.3 6.4 120.3-31.1 125.8-37.5 5.6-21-48.2 37.5-5.5 58.6 42.6-15.4 88.8-15.4 88.8"/>
	</g>
	<g id="OBJECTS">
		<g id="Layer">
			<path id="Layer" class="s2" d="m475.3 396.9h-443.5c-2.4 0-4.3-1.9-4.3-4.3 0-2.3 1.9-4.2 4.3-4.2h447.8v4.2c0 2.4-1.9 4.3-4.3 4.3z"/>
			<path id="Layer" class="s3" d="m191.2 396.9h-159.4c-2.4 0-4.3-1.9-4.3-4.3v-4.2h167.9v4.2c0 2.4-1.9 4.3-4.2 4.3z"/>
		</g>
		<g id="Layer">
			<path id="Layer" class="s3" d="m257.4 225.8c-19 36.5-40.3 51.4-40.3 51.4l18.4 29.4 32.2-33.4z"/>
			<path id="Layer" class="s3" d="m304.5 217.1l-47.1 8.7c-3 89.1-4.1 162.5-4.1 162.5h84.6c0 0 2.4-136.4-11.2-166.2z"/>
			<path id="Layer" class="s4" d="m299 262.5l23-1.9"/>
			<path id="Layer" fill-rule="evenodd" class="s5" d="m288.5 243.4c0 0 14.6 99.4 1.9 139.6"/>
			<path id="Layer" fill-rule="evenodd" class="s5" d="m273.3 293.2c0 0 14 5.6 32.3 6.2 18.2 0.6 6.9 10.3-20.2 8.5"/>
			<path id="Layer" class="s6" d="m276.9 213.5l11.6 30.9 16-27.3-10.5-17.2z"/>
			<path id="Layer" class="s2" d="m288.5 244.4l21.7-6-5.7-21.3z"/>
			<path id="Layer" class="s2" d="m279.5 220.4l-11.8 13.1 20.8 10.9z"/>
			<path id="Layer" class="s6" d="m235.5 306.6c0 0 6.9-14.3-7.9-32.8-8.2-10.2-11.9-27.9-11.9-27.9l-12.3 1.9 11.2 58.8c0 0 20.9 0 20.9 0z"/>
			<path id="Layer" class="s6" d="m200.8 227.4l-5 4.6 6.7 6-21-0.4-0.5 7.2 22.4 3 12.3-1.9z"/>
			<path id="Layer" class="s6" d="m204.5 238.7l-20.2-8.3-1.3 3.6 16.9 7.1z"/>
			<path id="Layer" class="s3" d="m326.7 222.1c0 0 27.2 15.5 35.8 73.5l-31.6 7.6z"/>
			<g id="Layer">
				<path id="Layer" class="s6" d="m267.7 175.8l-10.3 26.2 7.9 2.4 2.4 14.8 25-5.7 3.7-40.2z"/>
				<path id="Layer" class="s7" d="m284.4 182h-19.2l2.1-5.7 17.1-1z"/>
				<path id="Layer" class="s8" d="m294.4 194c0 0-12.2-2.5-12.2-15.2 0 0-18.1 2.5-24.4-7.4-7.4-11.6 3.9-25 13.3-22.3 0 0-5.9 5.8 3 6.5 6.4 0.5 18.1-8 22.3 0.2 0 0 32.1 7.4 8.1 37.3z"/>
				<path id="Layer" fill-rule="evenodd" class="s9" d="m282.2 177.8c0 0-24.3 4.7-29.3-12.7-3-10.2 7.2-16 7.2-16"/>
				<g id="Layer">
					<path id="Layer" class="s10" d="m271.9 201.2c-5 0-9.1-4.1-9.1-9.2 0-5 4.1-9.1 9.1-9.1 5.1 0 9.2 4.1 9.2 9.1 0 5.1-4.1 9.2-9.2 9.2z"/>
					<path id="Layer" class="s10" d="m280.6 189.1l13 0.7"/>
				</g>
				<path id="Layer" class="s6" d="m310.2 196.3c0 5.7-7.6 10.3-13.3 10.3-5.6 0-7.2-4.6-7.2-10.3 0-5.7 4.6-10.3 10.3-10.3 5.6 0 10.2 4.6 10.2 10.3z"/>
			</g>
			<path id="Layer" class="s6" d="m358.7 296.5v47.3h-23.6l-2-41.2z"/>
			<path id="Layer" class="s11" d="m255.6 285.8l1-33-15.3 47.8z"/>
			<path id="Layer" class="s7" d="m278.1 216.6l14.6-3.1-12 10.2z"/>
			<path id="Layer" class="s8" d="m269.5 196.3c-1 0-1.8-1.6-1.8-3.7 0-2 0.8-3.6 1.8-3.6 0.9 0 1.7 1.6 1.7 3.6 0 2.1-0.8 3.7-1.7 3.7z"/>
			<path id="Layer" class="s8" d="m274.2 183.7c0-4.8-3.9-1.6-3.9-1.6z"/>
			<path id="Layer" class="s12" d="m270.3 205.4l5.6-1.5c0 0 2.4 20.7-5.6 1.5z"/>
		</g>
		<g id="Layer">
			<path id="Layer" class="s13" d="m150.2 298.1c0 0 37.6-5.8 38.3 59.8 0.1 10.6 6.9 30.5 6.9 30.5h-34.1z"/>
			<path id="Layer" class="s14" d="m110.8 292.3l-22.7 5.4 6.9 90.7h88.5c0 0-3-71.8-36.3-93.3z"/>
			<path id="Layer" class="s14" d="m88.1 297.7c-23.4 5.3-17.9 23.3-13.4 60.2-11.7 9.5-0.5 13.8-0.5 13.8-12.8 13.6 3.2 16.7 3.2 16.7h42.8c0 0-8.6-96.1-32.1-90.7z"/>
			<path id="Layer" class="s15" d="m117.6 367.4l-10.2-47.1"/>
			<path id="Layer" class="s6" d="m77.4 388.4c0 0 7.2-16.6 30-25 19-6.9 46.6 11.1 64.4-6l3.3 19.2-54.9 11.8z"/>
			<g id="Layer">
				<g id="Layer">
					<path id="Layer" class="s6" d="m152.6 245.6l17 25.7-10.9 3.9-1.9 20.9-32.6-11.3 3.1-42.6z"/>
					<path id="Layer" class="s7" d="m127.5 272.6l-16.7 19.7 21.4 26.2 9.7-30.6z"/>
					<path id="Layer" class="s7" d="m133.1 260.5l23.9-8.3-4.4-6.6-23.5 2.4z"/>
					<path id="Layer" class="s8" d="m131 269.5c0 0 7.3 14.4 2.2-13.4 0 0 6.9 0.7 12.3-8.3 0 0-1.7 14.7 14.1 0 15.7-14.8-4.3-26.3-28.8-22-21.2 3.8-42.4 15.8-11.4 56.4z"/>
					<path id="Layer" class="s6" d="m127.2 275.2c-1.6 2.2-4.4 4.2-7.4 4.6-5.8 0.9-11.4-3.7-12.3-9.5-0.8-5.9 2.1-8.9 7.9-9.7 3.3-0.5 7.1 0.5 9.9 2.4 0.9 1.1 1.9 12.2 1.9 12.2z"/>
					<path id="Layer" class="s8" d="m150.2 267.2c-0.9 0.2-2-1.2-2.6-3.2-0.5-2-0.2-3.8 0.6-4 0.9-0.2 2.1 1.2 2.6 3.2 0.5 2 0.3 3.8-0.6 4z"/>
					<path id="Layer" class="s8" d="m143.6 258.5c0 0-0.9-4.7 3.6-2.4z"/>
				</g>
				<path id="Layer" class="s14" d="m108.2 293.1l3.8-4.5-1.4-3.3 8.8-3.1 25.1 12.7 1 9.6-4.3-1.3-6.9 25.9z"/>
				<path id="Layer" class="s15" d="m130.9 299.4l14.6 5.1-1-9.6"/>
				<path id="Layer" class="s8" d="m133.2 256.1c0 0 3 17 7.3 20.5 1.4 1.2 4-1.7 16.3-2 7.5-0.1 7.5 26.1-2.4 25.3-10-0.7-25.1-6.9-27.4-26-2-16.8 6.2-17.8 6.2-17.8z"/>
				<path id="Layer" fill-rule="evenodd" class="s16" d="m145.5 279.8c0 0 2.5 4.7 7.5 1.5"/>
			</g>
		</g>
		<g id="Layer">
			<path id="Layer" class="s3" d="m202.4 377.6h-84v6.2c0 2.5 2.1 4.6 4.6 4.6h79.4c2.5 0 4.6-2.1 4.6-4.6v-1.7c0-2.5-2.1-4.5-4.6-4.5z"/>
			<g id="Layer">
				<path id="Layer" class="s3" d="m270.6 315.2h-97.7c-2.9 0-5.3 2.2-5.7 5l-7.9 61.7c-0.4 3.4 2.3 6.5 5.8 6.5h97.6c2.9 0 5.4-2.2 5.7-5.1l7.9-61.6c0.5-3.4-2.2-6.5-5.7-6.5z"/>
				<path id="Layer" class="s2" d="m275.3 315.2h-97.7c-2.9 0-5.3 2.2-5.7 5l-7.8 61.7c-0.5 3.4 2.2 6.5 5.7 6.5h97.7c2.9 0 5.3-2.2 5.7-5.1l7.8-61.6c0.5-3.4-2.2-6.5-5.7-6.5z"/>
				<path id="Layer" class="s12" d="m228.8 358.4c-4 3.9-10.1 4-13.6 0.4-3.5-3.7-3-9.8 1.1-13.7 4-3.8 10.1-4 13.6-0.3 3.5 3.6 3 9.7-1.1 13.6z"/>
			</g>
			<path id="Layer" class="s17" d="m273.2 387.8h-121.6"/>
		</g>
		<g id="Layer">
			<g id="Layer">
				<g id="Layer">
					<path id="Layer" class="s8" d="m326.9 305.4l40.4 0.7-9.2-49.3-21.4 2.4c0 0-9.7 14.3-2.1 25.4 8.7 12.5-8.6 12.9-7.7 20.8z"/>
					<path id="Layer" fill-rule="evenodd" class="s18" d="m336.7 259.2c0 0-9.7 14.3-2.1 25.4 8.7 12.5-8.6 12.9-7.7 20.8"/>
				</g>
				<path id="Layer" class="s19" d="m344.7 299.4c0 0-18.3 18-28 85.9h20.4z"/>
				<path id="Layer" class="s20" d="m393.3 294.4l-8 90.9h-59.4l7.4-34.7c0 0-22.6-11.8 11.4-51.2l8.5-4.3 36.7-2.8z"/>
				<path id="Layer" fill-rule="evenodd" class="s21" d="m344.7 340.1c0 0-3.5 6.1-0.1 11l-5 34.2"/>
				<path id="Layer" class="s21" d="m336.4 350.8l34.4 1"/>
				<path id="Layer" class="s21" d="m377.6 367.9l-3.6-43.8"/>
				<path id="Layer" class="s20" d="m393.3 294.4c0 0 3.2 4.1 7 13.7 5.4 13.5 11.8 38 11.4 77.2h-26.4z"/>
				<path id="Layer" class="s6" d="m411.7 388.3c0 0-13.2-30.2-46.4-21.5-36.3 9.4-49.8 7.6-49.8 7.6l-2.8 13.9z"/>
				<g id="Layer">
					<path id="Layer" class="s19" d="m377.1 360.4l-11.8 2.7 26.8 25.2h25.3c0 0-10.9-26.3-40.3-27.9z"/>
					<path id="Layer" class="s1" d="m377.9 368.3l5.6-1.8"/>
				</g>
				<path id="Layer" class="s6" d="m315.5 374.4l-17.2-3.5-12.4 17.4h26.8z"/>
				<path id="Layer" class="s19" d="m344.7 340.1l32.1-32-6-2.8 22.5-10.9-10.3-6.6h-24l-14.3 17.8 4 1-4 2.8z"/>
				<g id="Layer">
					<path id="Layer" class="s6" d="m367.1 298.7l10.5-7.2-11.3-25.3-17.5 11 4.9 21-9 41.9z"/>
					<path id="Layer" class="s7" d="m350.2 283.2l12.3-6.4-11 12z"/>
					<path id="Layer" class="s6" d="m327.7 246.6l-5.3 29.8h8l9.1 12.4 23-12-16.1-35.9z"/>
					<path id="Layer" class="s7" d="m326.4 253.8l-0.5 3.3 21.2-2.9-0.3-4.1z"/>
					<path id="Layer" class="s8" d="m386.4 244.4c-5.3-14.4-11.8-20-11.8-20-13-12.9-35.3 1.4-35.3 1.4-28.5-6.9-16.9 28.5-16.9 28.5l23.2-2.8c3.3 19.5 14.9 9.6 14.9 9.6l5.4 9.8c0 0-5.5 4.8 0.2 13.1 4.7 6.8-6.5 9.2-3.6 16.4l44.9-9.3c0-29.5-11.4-20.7-21-46.7z"/>
					<path id="Layer" fill-rule="evenodd" class="s18" d="m320.5 254.6c0 0-4.1-20.2 3.5-26.8 3.9-3.5 16.3-2 16.3-2"/>
					<path id="Layer" fill-rule="evenodd" class="s9" d="m410.3 290.3c0 0 3.6-13.5-15.9-28.7"/>
					<path id="Layer" class="s6" d="m361.1 272.1c-5.3 0-9.6-4.3-9.6-9.6 0-5.4 4.3-9.7 9.6-9.7 5.4 0 9.7 4.3 9.7 9.7 0 5.3-4.3 9.6-9.7 9.6z"/>
				</g>
			</g>
			<path id="Layer" class="s12" d="m336.4 275.3l6-1.5c0 0 2.1 17.1-6 1.5z"/>
			<g id="Layer">
				<path id="Layer" fill-rule="evenodd" class="s22" d="m331.4 265.2c0 0 1.9-11.7 6.1 0"/>
				<path id="Layer" class="s8" d="m332.9 256.3c0 0 2.3-3.9 5.1 0z"/>
			</g>
		</g>
		<g id="Layer">
			<g id="Layer">
				<path id="Layer" class="s20" d="m242.7 151.5c-3.5-9.7-14.5-14.5-24.1-10.4-8.2 3.6-12.6 12.9-10 21.6 1.4 4.8 4.6 8.5 8.7 10.7 3.7 2 6.9 4.8 9.3 8.4l0.7 1 13.4-4.8-0.1-1.3c-0.5-4.2 0.3-8.5 1.9-12.5 1.5-4 1.7-8.4 0.2-12.7z"/>
				<path id="Layer" class="s20" d="m242.7 151.5c-3.5-9.7-14.5-14.5-24.1-10.4-8.2 3.6-12.6 12.9-10 21.6 1.4 4.8 4.6 8.5 8.7 10.7 3.7 2 6.9 4.8 9.3 8.4l0.7 1 13.4-4.8-0.1-1.3c-0.5-4.2 0.3-8.5 1.9-12.5 1.5-4 1.7-8.4 0.2-12.7z"/>
				<path id="Layer" fill-rule="evenodd" class="s23" d="m230.3 178.8l-10.7-15.1c0 0 0.2-3 3.6-2.6 3.3 0.5 5.3 5.8 2.9 5-2.4-0.9-3.2-7.1 1.3-8.1 4.6-0.9 6.1 9.4 3.6 7.4-2.5-2-2-8.5 2.9-8.6l2.8 21.8"/>
				<path id="Layer" class="s8" d="m240.4 188.3l-6.3 2.3c-2.4 0.8-5.1-0.4-5.9-2.8l-1.4-3.7c-0.8-2.4 0.4-5.1 2.8-5.9l6.3-2.3c2.4-0.9 5.1 0.4 5.9 2.8l1.4 3.7c0.8 2.4-0.4 5-2.8 5.9z"/>
				<path id="Layer" class="s2" d="m222.9 179.4l19-6.9 3.3 9.3-19 6.8z"/>
			</g>
			<path id="Layer" class="s1" d="m225.3 135.1l-1.9-10.9"/>
			<path id="Layer" class="s1" d="m211.6 141.5l-9.1-8.8"/>
			<path id="Layer" class="s1" d="m202.2 157.6l-10.4 0.8"/>
			<path id="Layer" class="s1" d="m240.3 141l4.6-8.6"/>
		</g>
		<g id="Layer">
			<g id="Layer">
				<g id="Layer">
					<path id="Layer" class="s11" d="m386.1 220.9h64.2c2.3 0 4.4-1.8 4.8-4.1l6.6-36.6c0.4-2.2-1-4-3.3-4h-64.2c-2.2 0-4.4 1.8-4.8 4l-6.6 36.6c-0.4 2.3 1.1 4.1 3.3 4.1z"/>
					<g id="Layer">
						<path id="Layer" class="s12" d="m437.6 201.4c-1.9 1.7-4.6 1.8-6 0.2-1.4-1.5-1.1-4.2 0.8-5.9 1.9-1.7 4.6-1.8 6-0.3 1.4 1.6 1.1 4.2-0.8 6z"/>
						<path id="Layer" class="s12" d="m424.8 201.4c-1.9 1.7-4.5 1.8-6 0.2-1.4-1.5-1-4.2 0.9-5.9 1.8-1.7 4.5-1.8 5.9-0.3 1.5 1.6 1.1 4.2-0.8 6z"/>
						<path id="Layer" class="s12" d="m412.1 201.4c-1.9 1.7-4.6 1.8-6 0.2-1.4-1.5-1.1-4.2 0.8-5.9 1.9-1.7 4.5-1.8 6-0.3 1.4 1.6 1 4.2-0.8 6z"/>
					</g>
				</g>
				<path id="Layer" class="s11" d="m420.7 218.5l-22.4 13.2 4-14.3z"/>
			</g>
			<g id="Layer">
				<g id="Layer">
					<path id="Layer" class="s20" d="m179.2 215.4h-64.2c-2.3 0-4.4-1.8-4.8-4l-6.7-36.6c-0.4-2.3 1.1-4.1 3.4-4.1h64.2c2.2 0 4.4 1.8 4.8 4.1l6.6 36.6c0.4 2.2-1.1 4-3.3 4z"/>
					<g id="Layer">
						<path id="Layer" class="s12" d="m133.6 196.2c-1.4 1.5-4.1 1.4-5.9-0.3-1.9-1.7-2.3-4.4-0.8-5.9 1.4-1.6 4.1-1.5 5.9 0.2 1.9 1.8 2.3 4.4 0.8 6z"/>
						<path id="Layer" class="s12" d="m146.4 196.2c-1.4 1.5-4.1 1.4-6-0.3-1.9-1.7-2.2-4.4-0.8-5.9 1.4-1.6 4.1-1.5 6 0.2 1.9 1.8 2.2 4.4 0.8 6z"/>
						<path id="Layer" class="s12" d="m159.2 196.2c-1.5 1.5-4.1 1.4-6-0.3-1.9-1.7-2.3-4.4-0.8-5.9 1.4-1.6 4.1-1.5 5.9 0.2 1.9 1.8 2.3 4.4 0.9 6z"/>
					</g>
				</g>
				<path id="Layer" class="s20" d="m156.3 213l3.5 12.8 14.2-13.7z"/>
			</g>
		</g>
	</g>
	<g id="DESIGNED_BY_FREEPIK">
		<g id="Layer">
		</g>
	</g>
</svg>